<svg xmlns="http://www.w3.org/2000/svg" viewBox="0 0 760 626" font-family="system-ui, -apple-system, Segoe UI, sans-serif">
<rect x="0" y="0" width="760" height="626" fill="#fcfcfb" />
<text x="46" y="24" font-size="14" font-weight="650" fill="#0b0b0b">Total installations over time</text>
<text x="46" y="38" font-size="11" fill="#52514e">Sum of all versions per run &#183; Aug 20 &#8211; Sep 8</text>
<line x1="46" x2="744" y1="270.0" y2="270.0" stroke="#e1e0d9" stroke-width="1" />
<text x="38" y="273.0" font-size="10.5" fill="#898781" text-anchor="end">270</text>
<line x1="46" x2="744" y1="160.0" y2="160.0" stroke="#e1e0d9" stroke-width="1" />
<text x="38" y="163.0" font-size="10.5" fill="#898781" text-anchor="end">280</text>
<line x1="46" x2="744" y1="50.0" y2="50.0" stroke="#e1e0d9" stroke-width="1" />
<text x="38" y="53.0" font-size="10.5" fill="#898781" text-anchor="end">290</text>
<text x="46.0" y="286" font-size="10.5" fill="#898781" text-anchor="middle">Aug 20</text>
<text x="156.2" y="286" font-size="10.5" fill="#898781" text-anchor="middle">Aug 23</text>
<text x="229.7" y="286" font-size="10.5" fill="#898781" text-anchor="middle">Aug 25</text>
<text x="339.9" y="286" font-size="10.5" fill="#898781" text-anchor="middle">Aug 28</text>
<text x="450.1" y="286" font-size="10.5" fill="#898781" text-anchor="middle">Aug 31</text>
<text x="560.3" y="286" font-size="10.5" fill="#898781" text-anchor="middle">Sep 3</text>
<text x="633.8" y="286" font-size="10.5" fill="#898781" text-anchor="middle">Sep 5</text>
<text x="744.0" y="286" font-size="10.5" fill="#898781" text-anchor="middle">Sep 8</text>
<path d="M 46.0,270.0 L 46.0,259.0 L 82.7,248.0 L 119.5,248.0 L 156.2,204.0 L 192.9,204.0 L 229.7,215.0 L 266.4,215.0 L 303.2,182.0 L 339.9,182.0 L 376.6,138.0 L 413.4,149.0 L 450.1,149.0 L 486.8,116.0 L 523.6,105.0 L 560.3,105.0 L 597.1,105.0 L 633.8,105.0 L 670.5,105.0 L 707.3,105.0 L 744.0,61.0 L 744.0,270.0 Z" fill="#2a78d6" opacity="0.10" stroke="none" />
<path d="M 46.0,259.0 L 82.7,248.0 L 119.5,248.0 L 156.2,204.0 L 192.9,204.0 L 229.7,215.0 L 266.4,215.0 L 303.2,182.0 L 339.9,182.0 L 376.6,138.0 L 413.4,149.0 L 450.1,149.0 L 486.8,116.0 L 523.6,105.0 L 560.3,105.0 L 597.1,105.0 L 633.8,105.0 L 670.5,105.0 L 707.3,105.0 L 744.0,61.0" fill="none" stroke="#2a78d6" stroke-width="2" stroke-linejoin="round" stroke-linecap="round" />
<circle cx="46.0" cy="259.0" r="4" fill="#2a78d6" stroke="#fcfcfb" stroke-width="2"><title>Aug 20: 271</title></circle>
<circle cx="744.0" cy="61.0" r="4" fill="#2a78d6" stroke="#fcfcfb" stroke-width="2"><title>Sep 8: 289</title></circle>
<text x="744.0" y="49.0" font-size="13" font-weight="650" fill="#0b0b0b" text-anchor="end">289</text>
<text x="46.0" y="247.0" font-size="11" fill="#52514e" text-anchor="start">271</text>
<text x="46" y="316" font-size="14" font-weight="650" fill="#0b0b0b">Version distribution over time</text>
<text x="46" y="330" font-size="11" fill="#52514e">Top 6 versions + Other, stacked</text>
<line x1="46" x2="744" y1="562.0" y2="562.0" stroke="#e1e0d9" stroke-width="1" />
<text x="38" y="565.0" font-size="10.5" fill="#898781" text-anchor="end">0</text>
<line x1="46" x2="744" y1="488.7" y2="488.7" stroke="#e1e0d9" stroke-width="1" />
<text x="38" y="491.7" font-size="10.5" fill="#898781" text-anchor="end">100</text>
<line x1="46" x2="744" y1="415.3" y2="415.3" stroke="#e1e0d9" stroke-width="1" />
<text x="38" y="418.3" font-size="10.5" fill="#898781" text-anchor="end">200</text>
<line x1="46" x2="744" y1="342.0" y2="342.0" stroke="#e1e0d9" stroke-width="1" />
<text x="38" y="345.0" font-size="10.5" fill="#898781" text-anchor="end">300</text>
<text x="46.0" y="578" font-size="10.5" fill="#898781" text-anchor="middle">Aug 20</text>
<text x="156.2" y="578" font-size="10.5" fill="#898781" text-anchor="middle">Aug 23</text>
<text x="229.7" y="578" font-size="10.5" fill="#898781" text-anchor="middle">Aug 25</text>
<text x="339.9" y="578" font-size="10.5" fill="#898781" text-anchor="middle">Aug 28</text>
<text x="450.1" y="578" font-size="10.5" fill="#898781" text-anchor="middle">Aug 31</text>
<text x="560.3" y="578" font-size="10.5" fill="#898781" text-anchor="middle">Sep 3</text>
<text x="633.8" y="578" font-size="10.5" fill="#898781" text-anchor="middle">Sep 5</text>
<text x="744.0" y="578" font-size="10.5" fill="#898781" text-anchor="middle">Sep 8</text>
<path d="M 46.0,509.9 L 82.7,511.4 L 119.5,511.4 L 156.2,514.3 L 192.9,514.3 L 229.7,515.8 L 266.4,515.8 L 303.2,518.0 L 339.9,518.7 L 376.6,519.5 L 413.4,520.2 L 450.1,521.7 L 486.8,522.4 L 523.6,522.4 L 560.3,523.1 L 597.1,523.9 L 633.8,524.6 L 670.5,524.6 L 707.3,524.6 L 744.0,526.1 L 744.0,562.0 L 707.3,562.0 L 670.5,562.0 L 633.8,562.0 L 597.1,562.0 L 560.3,562.0 L 523.6,562.0 L 486.8,562.0 L 450.1,562.0 L 413.4,562.0 L 376.6,562.0 L 339.9,562.0 L 303.2,562.0 L 266.4,562.0 L 229.7,562.0 L 192.9,562.0 L 156.2,562.0 L 119.5,562.0 L 82.7,562.0 L 46.0,562.0 Z" fill="#898781" stroke="none"><title>Other</title></path>
<path d="M 46.0,509.9 L 82.7,511.4 L 119.5,511.4 L 156.2,514.3 L 192.9,514.3 L 229.7,515.8 L 266.4,515.8 L 303.2,518.0 L 339.9,518.7 L 376.6,519.5 L 413.4,520.2 L 450.1,521.7 L 486.8,522.4 L 523.6,522.4 L 560.3,523.1 L 597.1,523.9 L 633.8,524.6 L 670.5,524.6 L 707.3,524.6 L 744.0,526.1" fill="none" stroke="#fcfcfb" stroke-width="2" />
<path d="M 46.0,499.7 L 82.7,502.6 L 119.5,502.6 L 156.2,506.3 L 192.9,506.3 L 229.7,509.2 L 266.4,509.2 L 303.2,511.4 L 339.9,512.9 L 376.6,513.6 L 413.4,515.1 L 450.1,518.0 L 486.8,518.0 L 523.6,518.0 L 560.3,518.7 L 597.1,519.5 L 633.8,520.9 L 670.5,520.9 L 707.3,521.7 L 744.0,523.1 L 744.0,526.1 L 707.3,524.6 L 670.5,524.6 L 633.8,524.6 L 597.1,523.9 L 560.3,523.1 L 523.6,522.4 L 486.8,522.4 L 450.1,521.7 L 413.4,520.2 L 376.6,519.5 L 339.9,518.7 L 303.2,518.0 L 266.4,515.8 L 229.7,515.8 L 192.9,514.3 L 156.2,514.3 L 119.5,511.4 L 82.7,511.4 L 46.0,509.9 Z" fill="#008300" stroke="none"><title>2.2.0</title></path>
<path d="M 46.0,499.7 L 82.7,502.6 L 119.5,502.6 L 156.2,506.3 L 192.9,506.3 L 229.7,509.2 L 266.4,509.2 L 303.2,511.4 L 339.9,512.9 L 376.6,513.6 L 413.4,515.1 L 450.1,518.0 L 486.8,518.0 L 523.6,518.0 L 560.3,518.7 L 597.1,519.5 L 633.8,520.9 L 670.5,520.9 L 707.3,521.7 L 744.0,523.1" fill="none" stroke="#fcfcfb" stroke-width="2" />
<path d="M 46.0,363.3 L 82.7,362.5 L 119.5,362.5 L 156.2,359.6 L 192.9,359.6 L 229.7,360.3 L 266.4,360.3 L 303.2,368.4 L 339.9,426.3 L 376.6,453.5 L 413.4,467.4 L 450.1,476.2 L 486.8,478.4 L 523.6,482.8 L 560.3,486.5 L 597.1,489.4 L 633.8,493.8 L 670.5,493.8 L 707.3,498.2 L 744.0,500.4 L 744.0,523.1 L 707.3,521.7 L 670.5,520.9 L 633.8,520.9 L 597.1,519.5 L 560.3,518.7 L 523.6,518.0 L 486.8,518.0 L 450.1,518.0 L 413.4,515.1 L 376.6,513.6 L 339.9,512.9 L 303.2,511.4 L 266.4,509.2 L 229.7,509.2 L 192.9,506.3 L 156.2,506.3 L 119.5,502.6 L 82.7,502.6 L 46.0,499.7 Z" fill="#2a78d6" stroke="none"><title>2.2.1</title></path>
<path d="M 46.0,363.3 L 82.7,362.5 L 119.5,362.5 L 156.2,359.6 L 192.9,359.6 L 229.7,360.3 L 266.4,360.3 L 303.2,368.4 L 339.9,426.3 L 376.6,453.5 L 413.4,467.4 L 450.1,476.2 L 486.8,478.4 L 523.6,482.8 L 560.3,486.5 L 597.1,489.4 L 633.8,493.8 L 670.5,493.8 L 707.3,498.2 L 744.0,500.4" fill="none" stroke="#fcfcfb" stroke-width="2" />
<path d="M 46.0,363.3 L 82.7,362.5 L 119.5,362.5 L 156.2,359.6 L 192.9,359.6 L 229.7,360.3 L 266.4,360.3 L 303.2,358.1 L 339.9,380.1 L 376.6,433.7 L 413.4,457.9 L 450.1,470.3 L 486.8,474.0 L 523.6,480.6 L 560.3,484.3 L 597.1,487.2 L 633.8,491.6 L 670.5,491.6 L 707.3,496.0 L 744.0,498.2 L 744.0,500.4 L 707.3,498.2 L 670.5,493.8 L 633.8,493.8 L 597.1,489.4 L 560.3,486.5 L 523.6,482.8 L 486.8,478.4 L 450.1,476.2 L 413.4,467.4 L 376.6,453.5 L 339.9,426.3 L 303.2,368.4 L 266.4,360.3 L 229.7,360.3 L 192.9,359.6 L 156.2,359.6 L 119.5,362.5 L 82.7,362.5 L 46.0,363.3 Z" fill="#e87ba4" stroke="none"><title>2.2.2</title></path>
<path d="M 46.0,363.3 L 82.7,362.5 L 119.5,362.5 L 156.2,359.6 L 192.9,359.6 L 229.7,360.3 L 266.4,360.3 L 303.2,358.1 L 339.9,380.1 L 376.6,433.7 L 413.4,457.9 L 450.1,470.3 L 486.8,474.0 L 523.6,480.6 L 560.3,484.3 L 597.1,487.2 L 633.8,491.6 L 670.5,491.6 L 707.3,496.0 L 744.0,498.2" fill="none" stroke="#fcfcfb" stroke-width="2" />
<path d="M 46.0,363.3 L 82.7,362.5 L 119.5,362.5 L 156.2,359.6 L 192.9,359.6 L 229.7,360.3 L 266.4,360.3 L 303.2,358.1 L 339.9,358.1 L 376.6,355.2 L 413.4,355.9 L 450.1,355.9 L 486.8,376.5 L 523.6,427.8 L 560.3,450.5 L 597.1,461.5 L 633.8,471.1 L 670.5,471.1 L 707.3,482.1 L 744.0,486.5 L 744.0,498.2 L 707.3,496.0 L 670.5,491.6 L 633.8,491.6 L 597.1,487.2 L 560.3,484.3 L 523.6,480.6 L 486.8,474.0 L 450.1,470.3 L 413.4,457.9 L 376.6,433.7 L 339.9,380.1 L 303.2,358.1 L 266.4,360.3 L 229.7,360.3 L 192.9,359.6 L 156.2,359.6 L 119.5,362.5 L 82.7,362.5 L 46.0,363.3 Z" fill="#1baf7a" stroke="none"><title>2.2.3</title></path>
<path d="M 46.0,363.3 L 82.7,362.5 L 119.5,362.5 L 156.2,359.6 L 192.9,359.6 L 229.7,360.3 L 266.4,360.3 L 303.2,358.1 L 339.9,358.1 L 376.6,355.2 L 413.4,355.9 L 450.1,355.9 L 486.8,376.5 L 523.6,427.8 L 560.3,450.5 L 597.1,461.5 L 633.8,471.1 L 670.5,471.1 L 707.3,482.1 L 744.0,486.5" fill="none" stroke="#fcfcfb" stroke-width="2" />
<path d="M 46.0,363.3 L 82.7,362.5 L 119.5,362.5 L 156.2,359.6 L 192.9,359.6 L 229.7,360.3 L 266.4,360.3 L 303.2,358.1 L 339.9,358.1 L 376.6,355.2 L 413.4,355.9 L 450.1,355.9 L 486.8,353.7 L 523.6,378.7 L 560.3,422.7 L 597.1,451.3 L 633.8,463.0 L 670.5,463.0 L 707.3,479.1 L 744.0,484.3 L 744.0,486.5 L 707.3,482.1 L 670.5,471.1 L 633.8,471.1 L 597.1,461.5 L 560.3,450.5 L 523.6,427.8 L 486.8,376.5 L 450.1,355.9 L 413.4,355.9 L 376.6,355.2 L 339.9,358.1 L 303.2,358.1 L 266.4,360.3 L 229.7,360.3 L 192.9,359.6 L 156.2,359.6 L 119.5,362.5 L 82.7,362.5 L 46.0,363.3 Z" fill="#eda100" stroke="none"><title>2.2.4</title></path>
<path d="M 46.0,363.3 L 82.7,362.5 L 119.5,362.5 L 156.2,359.6 L 192.9,359.6 L 229.7,360.3 L 266.4,360.3 L 303.2,358.1 L 339.9,358.1 L 376.6,355.2 L 413.4,355.9 L 450.1,355.9 L 486.8,353.7 L 523.6,378.7 L 560.3,422.7 L 597.1,451.3 L 633.8,463.0 L 670.5,463.0 L 707.3,479.1 L 744.0,484.3" fill="none" stroke="#fcfcfb" stroke-width="2" />
<path d="M 46.0,363.3 L 82.7,362.5 L 119.5,362.5 L 156.2,359.6 L 192.9,359.6 L 229.7,360.3 L 266.4,360.3 L 303.2,358.1 L 339.9,358.1 L 376.6,355.2 L 413.4,355.9 L 450.1,355.9 L 486.8,353.7 L 523.6,353.0 L 560.3,353.0 L 597.1,353.0 L 633.8,353.0 L 670.5,353.0 L 707.3,353.0 L 744.0,350.1 L 744.0,484.3 L 707.3,479.1 L 670.5,463.0 L 633.8,463.0 L 597.1,451.3 L 560.3,422.7 L 523.6,378.7 L 486.8,353.7 L 450.1,355.9 L 413.4,355.9 L 376.6,355.2 L 339.9,358.1 L 303.2,358.1 L 266.4,360.3 L 229.7,360.3 L 192.9,359.6 L 156.2,359.6 L 119.5,362.5 L 82.7,362.5 L 46.0,363.3 Z" fill="#eb6834" stroke="none"><title>2.2.5</title></path>
<path d="M 46.0,363.3 L 82.7,362.5 L 119.5,362.5 L 156.2,359.6 L 192.9,359.6 L 229.7,360.3 L 266.4,360.3 L 303.2,358.1 L 339.9,358.1 L 376.6,355.2 L 413.4,355.9 L 450.1,355.9 L 486.8,353.7 L 523.6,353.0 L 560.3,353.0 L 597.1,353.0 L 633.8,353.0 L 670.5,353.0 L 707.3,353.0 L 744.0,350.1" fill="none" stroke="#fcfcfb" stroke-width="2" />
<text x="738.0" y="548.0" font-size="11" font-weight="650" fill="#ffffff" text-anchor="end">Other</text>
<text x="738.0" y="515.8" font-size="11" font-weight="650" fill="#ffffff" text-anchor="end">2.2.1</text>
<text x="738.0" y="496.3" font-size="11" font-weight="650" fill="#ffffff" text-anchor="end">2.2.3</text>
<text x="738.0" y="421.2" font-size="11" font-weight="650" fill="#ffffff" text-anchor="end">2.2.5</text>
<line x1="46" x2="744" y1="562.0" y2="562.0" stroke="#c3c2b7" stroke-width="1" />
<line x1="46.0" x2="60.0" y1="598.0" y2="598.0" stroke="#eb6834" stroke-width="3" stroke-linecap="round" />
<text x="66.0" y="602.0" font-size="11.5" fill="#52514e">2.2.5 (183)</text>
<line x1="148.2" x2="162.2" y1="598.0" y2="598.0" stroke="#eda100" stroke-width="3" stroke-linecap="round" />
<text x="168.2" y="602.0" font-size="11.5" fill="#52514e">2.2.4 (3)</text>
<line x1="238.0" x2="252.0" y1="598.0" y2="598.0" stroke="#1baf7a" stroke-width="3" stroke-linecap="round" />
<text x="258.0" y="602.0" font-size="11.5" fill="#52514e">2.2.3 (16)</text>
<line x1="334.0" x2="348.0" y1="598.0" y2="598.0" stroke="#e87ba4" stroke-width="3" stroke-linecap="round" />
<text x="354.0" y="602.0" font-size="11.5" fill="#52514e">2.2.2 (3)</text>
<line x1="423.8" x2="437.8" y1="598.0" y2="598.0" stroke="#2a78d6" stroke-width="3" stroke-linecap="round" />
<text x="443.8" y="602.0" font-size="11.5" fill="#52514e">2.2.1 (31)</text>
<line x1="519.8" x2="533.8" y1="598.0" y2="598.0" stroke="#008300" stroke-width="3" stroke-linecap="round" />
<text x="539.8" y="602.0" font-size="11.5" fill="#52514e">2.2.0 (4)</text>
<line x1="609.6" x2="623.6" y1="598.0" y2="598.0" stroke="#898781" stroke-width="3" stroke-linecap="round" />
<text x="629.6" y="602.0" font-size="11.5" fill="#52514e">Other (49)</text>
</svg>